<svg xmlns="http://www.w3.org/2000/svg" viewBox="0 0 32 32" fill="none">
  <rect width="32" height="32" rx="6" fill="#FDF6EC"/>
  <path d="M16 28 Q14 24 13 20 Q11 16 12 12 Q10 8 13 5 Q15 3 16 5 Q17 3 19 5 Q22 8 20 12 Q21 16 19 20 Q18 24 16 28Z" fill="#5C4033" fill-opacity="0.85"/>
  <path d="M6 14 Q4 10 8 6 Q11 3 16 2 Q21 3 24 6 Q28 10 26 14 Q24 18 20 18 Q16 20 12 18 Q8 18 6 14Z" fill="#2D5A3D" fill-opacity="0.7"/>
  <ellipse cx="16" cy="22" rx="2.5" ry="4" fill="#C8963E" fill-opacity="0.8">
    <animate attributeName="fill-opacity" values="0.6;0.9;0.6" dur="3s" repeatCount="indefinite"/>
  </ellipse>
  <path d="M14.5 24 Q14.5 20 15 19 Q15.5 18 16 18 Q16.5 18 17 19 Q17.5 20 17.5 24" fill="none" stroke="#E8C778" stroke-width="0.5" stroke-opacity="0.6"/>
</svg>
